# xmcd
#
# Track frame offsets:
#	150
#	17086
#	39556
#	59328
#	78171
#	102277
#	116243
#	134822
#	150531
#	171442
#	184406
#	199733
#	212736
#	230167
#
# Disc length: 3220 seconds
# Revision: 0
# Processed by: cddbd v1.5.2PL0 Copyright (c) Steve Scherf et al.
# Submitted via: dBpowerAMP V12.0
#
DISCID=cd0c920e
DTITLE=Suzanne Petersen - I Foresaw This Trouble
DYEAR=2014
DGENRE=Pop
TTITLE0=Beautiful Eyes
TTITLE1=Cradle Mountain
TTITLE2=Good Lookin' Blues
TTITLE3=Monkey Back Blues
TTITLE4=Blue Room
TTITLE5=Fine as Wine
TTITLE6=Come Hear The Blues
TTITLE7=She's Off the Wagon
TTITLE8=I Foresaw This Trouble
TTITLE9=Goin' to New York
TTITLE10=Hour Of Need
TTITLE11=The Last Time
TTITLE12=The Life You Gave to Me
TTITLE13=Walk Away
EXTD=
EXTT0=
EXTT1=
EXTT2=
EXTT3=
EXTT4=
EXTT5=
EXTT6=
EXTT7=
EXTT8=
EXTT9=
EXTT10=
EXTT11=
EXTT12=
EXTT13=
PLAYORDER=
